<svg width="20" height="20" viewBox="0 0 20 20" fill="none" xmlns="http://www.w3.org/2000/svg">
<path d="M15.8907 16.5612C15.1645 17.6462 14.3945 18.705 13.222 18.7225C12.0501 18.7487 11.6739 18.0313 10.3439 18.0313C9.0051 18.0313 8.59386 18.705 7.48261 18.7487C6.33636 18.7925 5.47011 17.5937 4.73511 16.535C3.23948 14.375 2.09386 10.3937 3.63323 7.71625C3.99262 7.06958 4.51369 6.52724 5.14547 6.14228C5.77726 5.75732 6.49813 5.5429 7.23761 5.52C8.35761 5.5025 9.42511 6.28062 10.1164 6.28062C10.7989 6.28062 12.0939 5.345 13.4501 5.485C14.0787 5.50744 14.6936 5.67555 15.2462 5.97608C15.7988 6.27662 16.274 6.70137 16.6345 7.21687C16.0664 7.57016 15.5964 8.06067 15.2677 8.64325C14.9389 9.22582 14.762 9.88175 14.7532 10.5506C14.7565 11.3044 14.9803 12.0407 15.397 12.6689C15.8137 13.297 16.4051 13.7895 17.0982 14.0856C16.8157 14.9641 16.4091 15.7978 15.8907 16.5612ZM10.8951 2.5625C11.5577 1.81795 12.4759 1.34951 13.4676 1.25C13.5069 1.75224 13.4467 2.25729 13.2906 2.73625C13.1344 3.21521 12.8853 3.65867 12.5576 4.04125C12.2538 4.43504 11.8622 4.75243 11.4141 4.96815C10.966 5.18386 10.4736 5.29193 9.97636 5.28375C9.94248 4.79199 10.0062 4.29838 10.1639 3.83135C10.3216 3.36432 10.5701 2.93309 10.8951 2.5625Z" fill="white"/>
</svg>
