<svg width="92" height="20" viewBox="0 0 92 20" fill="none" xmlns="http://www.w3.org/2000/svg">
<path d="M0.871374 20V18.25H11.154V20H0.871374Z" fill="#131416"/>
<path d="M8.329 9.79439L6.34408 11.77L2.05887 7.47592L7.58697 1.94746L11.8629 6.25121L10.0078 8.10628L19.3295 17.3445L17.6414 19.0141L8.329 9.79439Z" fill="#131416"/>
<path d="M5.85252 13.004L4.97136 13.8852L0 8.92287L0.899708 8.04164L5.85252 13.004Z" fill="#131416"/>
<path d="M13.8942 4.9623L13.0131 5.84346L8.04074 0.879708L8.94045 0L13.8942 4.9623Z" fill="#131416"/>
<path d="M23 17.7507V3H27.8552C32.5826 3 35.2445 5.65928 35.2445 10.3961C35.2445 15.1122 32.6465 17.7507 27.983 17.7507H23ZM25.2998 15.6939H27.8552C31.1985 15.6939 32.8594 13.9488 32.8594 10.3961C32.8594 6.80194 31.1985 5.05679 27.8552 5.05679H25.2998V15.6939Z" fill="black"/>
<path d="M42.6933 18C39.4565 18 37.327 15.7355 37.327 12.2244C37.327 8.7133 39.4565 6.44875 42.6933 6.44875C45.9301 6.44875 48.0595 8.7133 48.0595 12.2244C48.0595 15.7355 45.9301 18 42.6933 18ZM42.6933 16.0886C44.6098 16.0886 45.7171 14.6551 45.7171 12.2244C45.7171 9.79363 44.6098 8.36011 42.6933 8.36011C40.7768 8.36011 39.6694 9.79363 39.6694 12.2244C39.6694 14.6551 40.7768 16.0886 42.6933 16.0886Z" fill="black"/>
<path d="M55.0043 18C51.7462 18 49.638 15.7147 49.638 12.2244C49.638 8.73407 51.7462 6.44875 55.0043 6.44875C57.7513 6.44875 59.6891 7.90305 60.0724 10.4584L57.7087 10.5831C57.4745 9.14958 56.431 8.36011 55.0043 8.36011C53.0878 8.36011 51.9804 9.79363 51.9804 12.2244C51.9804 14.6551 53.0878 16.0886 55.0043 16.0886C56.4523 16.0886 57.4958 15.2992 57.7087 13.6994L60.0724 13.8241C59.7104 16.3587 57.7726 18 55.0043 18Z" fill="black"/>
<path d="M62.1318 17.7507V3H64.3891V12.162L69.4785 6.69806H72.332L67.9027 11.3518L72.5024 17.7507H69.9044L66.3908 12.723L64.3891 14.8006V17.7507H62.1318Z" fill="black"/>
<path d="M78.5657 18C75.265 18 73.1994 15.7147 73.1994 12.2244C73.1994 8.73407 75.265 6.44875 78.5018 6.44875C81.5896 6.44875 83.6764 8.58864 83.6764 12.3075V12.8684H75.5419C75.6483 15.0291 76.7769 16.1094 78.587 16.1094C79.9073 16.1094 80.8016 15.4654 81.1637 14.4266L83.5061 14.572C82.9098 16.6288 81.0572 18 78.5657 18ZM75.5419 11.2064H81.2914C81.1424 9.25346 80.035 8.31856 78.5018 8.31856C76.8834 8.31856 75.7974 9.33657 75.5419 11.2064Z" fill="black"/>
<path d="M89.8918 17.7507C87.7411 17.7507 86.7402 16.8366 86.7402 14.759V8.50554H85.0153V6.69806H86.7402V4.10111H88.9974V6.69806H92V8.50554H88.9974V14.5928C88.9974 15.6316 89.4446 15.9432 90.3816 15.9432H92V17.7507H89.8918Z" fill="black"/>
</svg>
