<svg width="94" height="20" viewBox="0 0 94 20" fill="none" xmlns="http://www.w3.org/2000/svg">
<path d="M0.871374 20V17.7173H11.154V20H0.871374Z" fill="#131416"/>
<path d="M8.329 9.79439L6.34408 11.77L2.05887 7.47592L7.58697 1.94746L11.8629 6.25121L10.0078 8.10628L19.3295 17.3445L17.6414 19.0141L8.329 9.79439Z" fill="#131416"/>
<path d="M5.85252 13.004L4.97136 13.8852L0 8.92287L0.899708 8.04164L5.85252 13.004Z" fill="#131416"/>
<path d="M13.8942 4.9623L13.0131 5.84346L8.04074 0.879708L8.94045 0L13.8942 4.9623Z" fill="#131416"/>
<path d="M22.5787 17.7173V2.57064H27.6134C32.4347 2.57064 35.144 5.3013 35.144 10.1653C35.144 15.0079 32.4987 17.7173 27.7414 17.7173H22.5787ZM25.3521 15.3066H27.6134C30.7707 15.3066 32.2854 13.6213 32.2854 10.1653C32.2854 6.66663 30.7707 4.98131 27.6134 4.98131H25.3521V15.3066Z" fill="#131416"/>
<path d="M42.6897 17.9733C39.2977 17.9733 37.079 15.6266 37.079 12.0213C37.079 8.41596 39.2977 6.0693 42.6897 6.0693C46.0603 6.0693 48.279 8.41596 48.279 12.0213C48.279 15.6266 46.0603 17.9733 42.6897 17.9733ZM42.6897 15.7546C44.439 15.7546 45.4417 14.3893 45.4417 12.0213C45.4417 9.67463 44.439 8.28796 42.6897 8.28796C40.919 8.28796 39.9164 9.67463 39.9164 12.0213C39.9164 14.3893 40.919 15.7546 42.6897 15.7546Z" fill="#131416"/>
<path d="M55.3355 17.9733C51.9435 17.9733 49.7248 15.6266 49.7248 12.0213C49.7248 8.4373 51.9435 6.0693 55.3355 6.0693C58.2155 6.0693 60.3061 7.64796 60.6475 10.3573L57.8315 10.5066C57.5968 9.05596 56.6581 8.28796 55.3355 8.28796C53.5648 8.28796 52.5622 9.67463 52.5622 12.0213C52.5622 14.3893 53.5648 15.7546 55.3355 15.7546C56.6581 15.7546 57.6181 14.9866 57.8315 13.3866L60.6475 13.5146C60.3275 16.2453 58.2581 17.9733 55.3355 17.9733Z" fill="#131416"/>
<path d="M62.5528 17.7173V2.57064H65.2835V11.4666L69.9554 6.3253H73.3261L68.8674 11.0613L73.4754 17.7173H70.4034L67.0755 12.6826L65.2835 14.5813V17.7173H62.5528Z" fill="#131416"/>
<path d="M79.5016 17.9733C76.0883 17.9733 73.9123 15.6266 73.9123 12.0213C73.9123 8.4373 76.0883 6.0693 79.4376 6.0693C82.7016 6.0693 84.8349 8.33063 84.8349 12.1706V12.7893H76.7496C76.8349 14.7946 77.8803 15.7973 79.5229 15.7973C80.7389 15.7973 81.5496 15.2213 81.8909 14.2186L84.6856 14.3893C84.0669 16.6079 82.1256 17.9733 79.5016 17.9733ZM76.7496 10.9546H82.0189C81.8909 9.09863 80.8882 8.22396 79.4376 8.22396C77.9656 8.22396 76.9629 9.18396 76.7496 10.9546Z" fill="#131416"/>
<path d="M91.1389 17.7173C88.8776 17.7173 87.8322 16.7146 87.8322 14.4533V8.4373H86.0402V6.3253H87.8322V3.65864H90.5629V6.3253H93.5709V8.4373H90.5629V14.1973C90.5629 15.2639 91.0109 15.6053 91.9709 15.6053H93.5709V17.7173H91.1389Z" fill="#131416"/>
</svg>
